HIERARCHY
ROOT Hips
{
	OFFSET 0.000000 97.167313 0.000000
	CHANNELS 6 Xposition Yposition Zposition Xrotation Yrotation Zrotation
	JOINT Spine
	{
		OFFSET 0.000000 13.784798 0.064400
		CHANNELS 3 Xrotation Yrotation Zrotation
		JOINT Spine1
		{
			OFFSET 0.000000 12.037903 0.404700
			CHANNELS 3 Xrotation Yrotation Zrotation
			JOINT Spine2
			{
				OFFSET 0.000000 17.795601 0.420200
				CHANNELS 3 Xrotation Yrotation Zrotation
				JOINT Neck
				{
					OFFSET 0.000000 39.131302 11.954600
					CHANNELS 3 Xrotation Yrotation Zrotation
					JOINT Head
					{
						OFFSET 0.000000 14.456192 15.627699
						CHANNELS 3 Xrotation Yrotation Zrotation
						JOINT HeadTop_End
						{
							OFFSET 0.000000 15.703506 7.603401
							CHANNELS 3 Xrotation Yrotation Zrotation
							End Site
							{
								OFFSET 0.000000 17.447403 0.000000
							}
						}
					}
				}
				JOINT LeftShoulder
				{
					OFFSET 17.399500 24.608795 1.168800
					CHANNELS 3 Xrotation Yrotation Zrotation
					JOINT LeftArm
					{
						OFFSET 18.980635 5.765305 1.818600
						CHANNELS 3 Xrotation Yrotation Zrotation
						JOINT LeftForeArm
						{
							OFFSET 49.290169 0.000000 0.000000
							CHANNELS 3 Xrotation Yrotation Zrotation
							JOINT LeftHand
							{
								OFFSET 31.562012 0.000000 0.000000
								CHANNELS 3 Xrotation Yrotation Zrotation
								JOINT LeftHandThumb1
								{
									OFFSET 6.133995 -4.388519 7.076070
									CHANNELS 3 Xrotation Yrotation Zrotation
									JOINT LeftHandThumb2
									{
										OFFSET 6.037666 -3.485840 3.485847
										CHANNELS 3 Xrotation Yrotation Zrotation
										JOINT LeftHandThumb3
										{
											OFFSET 6.496506 -3.750763 3.750761
											CHANNELS 3 Xrotation Yrotation Zrotation
											JOINT LeftHandThumb4
											{
												OFFSET 5.616882 -3.242905 3.242910
												CHANNELS 3 Xrotation Yrotation Zrotation
												End Site
												{
													OFFSET -1.254608 7.132141 0.375429
												}
											}
										}
									}
								}
								JOINT LeftHandPinky1
								{
									OFFSET 18.920792 -0.453171 -11.426712
									CHANNELS 3 Xrotation Yrotation Zrotation
									JOINT LeftHandPinky2
									{
										OFFSET 4.919586 0.000000 0.000000
										CHANNELS 3 Xrotation Yrotation Zrotation
										JOINT LeftHandPinky3
										{
											OFFSET 5.233047 0.000000 0.000000
											CHANNELS 3 Xrotation Yrotation Zrotation
											JOINT LeftHandPinky4
											{
												OFFSET 5.571716 0.000000 0.000000
												CHANNELS 3 Xrotation Yrotation Zrotation
												End Site
												{
													OFFSET -3.459808 4.342407 -0.466164
												}
											}
										}
									}
								}
								JOINT LeftHandRing1
								{
									OFFSET 22.726120 -0.094986 -6.500475
									CHANNELS 3 Xrotation Yrotation Zrotation
									JOINT LeftHandRing2
									{
										OFFSET 6.408615 0.000000 0.000000
										CHANNELS 3 Xrotation Yrotation Zrotation
										JOINT LeftHandRing3
										{
											OFFSET 6.150223 0.000000 0.000000
											CHANNELS 3 Xrotation Yrotation Zrotation
											JOINT LeftHandRing4
											{
												OFFSET 6.145386 0.000000 0.000000
												CHANNELS 3 Xrotation Yrotation Zrotation
												End Site
												{
													OFFSET -3.671402 4.923981 -0.202372
												}
											}
										}
									}
								}
								JOINT LeftHandMiddle1
								{
									OFFSET 23.373947 0.000000 0.000001
									CHANNELS 3 Xrotation Yrotation Zrotation
									JOINT LeftHandMiddle2
									{
										OFFSET 6.996567 0.000000 0.000000
										CHANNELS 3 Xrotation Yrotation Zrotation
										JOINT LeftHandMiddle3
										{
											OFFSET 7.015945 0.000000 0.000000
											CHANNELS 3 Xrotation Yrotation Zrotation
											JOINT LeftHandMiddle4
											{
												OFFSET 7.721573 0.000000 0.000000
												CHANNELS 3 Xrotation Yrotation Zrotation
												End Site
												{
													OFFSET -4.651108 6.158463 0.251582
												}
											}
										}
									}
								}
								JOINT LeftHandIndex1
								{
									OFFSET 21.310577 -0.490082 6.209344
									CHANNELS 3 Xrotation Yrotation Zrotation
									JOINT LeftHandIndex2
									{
										OFFSET 7.536453 0.000000 0.000000
										CHANNELS 3 Xrotation Yrotation Zrotation
										JOINT LeftHandIndex3
										{
											OFFSET 7.512344 0.000000 0.000000
											CHANNELS 3 Xrotation Yrotation Zrotation
											JOINT LeftHandIndex4
											{
												OFFSET 10.212402 0.000000 0.000001
												CHANNELS 3 Xrotation Yrotation Zrotation
												End Site
												{
													OFFSET -5.180801 8.690506 1.388433
												}
											}
										}
									}
								}
							}
						}
					}
				}
				JOINT RightShoulder
				{
					OFFSET -17.399500 24.608795 1.168800
					CHANNELS 3 Xrotation Yrotation Zrotation
					JOINT RightArm
					{
						OFFSET -18.980635 5.765305 1.818600
						CHANNELS 3 Xrotation Yrotation Zrotation
						JOINT RightForeArm
						{
							OFFSET -49.290169 0.000000 0.000000
							CHANNELS 3 Xrotation Yrotation Zrotation
							JOINT RightHand
							{
								OFFSET -31.562012 0.000000 0.000000
								CHANNELS 3 Xrotation Yrotation Zrotation
								JOINT RightHandThumb1
								{
									OFFSET -6.133995 -4.388519 7.076070
									CHANNELS 3 Xrotation Yrotation Zrotation
									JOINT RightHandThumb2
									{
										OFFSET -6.037666 -3.485840 3.485847
										CHANNELS 3 Xrotation Yrotation Zrotation
										JOINT RightHandThumb3
										{
											OFFSET -6.496506 -3.750763 3.750761
											CHANNELS 3 Xrotation Yrotation Zrotation
											JOINT RightHandThumb4
											{
												OFFSET -5.616882 -3.242905 3.242910
												CHANNELS 3 Xrotation Yrotation Zrotation
												End Site
												{
													OFFSET 1.254608 7.132141 0.375429
												}
											}
										}
									}
								}
								JOINT RightHandIndex1
								{
									OFFSET -21.310577 -0.490082 6.209344
									CHANNELS 3 Xrotation Yrotation Zrotation
									JOINT RightHandIndex2
									{
										OFFSET -7.536453 0.000000 0.000000
										CHANNELS 3 Xrotation Yrotation Zrotation
										JOINT RightHandIndex3
										{
											OFFSET -7.512344 0.000000 0.000000
											CHANNELS 3 Xrotation Yrotation Zrotation
											JOINT RightHandIndex4
											{
												OFFSET -10.212402 0.000000 0.000001
												CHANNELS 3 Xrotation Yrotation Zrotation
												End Site
												{
													OFFSET 5.180801 8.690506 1.388433
												}
											}
										}
									}
								}
								JOINT RightHandMiddle1
								{
									OFFSET -23.373947 0.000000 0.000001
									CHANNELS 3 Xrotation Yrotation Zrotation
									JOINT RightHandMiddle2
									{
										OFFSET -6.996567 0.000000 0.000000
										CHANNELS 3 Xrotation Yrotation Zrotation
										JOINT RightHandMiddle3
										{
											OFFSET -7.015945 0.000000 0.000000
											CHANNELS 3 Xrotation Yrotation Zrotation
											JOINT RightHandMiddle4
											{
												OFFSET -7.721573 0.000000 0.000000
												CHANNELS 3 Xrotation Yrotation Zrotation
												End Site
												{
													OFFSET 4.651108 6.158463 0.251582
												}
											}
										}
									}
								}
								JOINT RightHandRing1
								{
									OFFSET -22.726120 -0.094986 -6.500475
									CHANNELS 3 Xrotation Yrotation Zrotation
									JOINT RightHandRing2
									{
										OFFSET -6.408615 0.000000 0.000000
										CHANNELS 3 Xrotation Yrotation Zrotation
										JOINT RightHandRing3
										{
											OFFSET -6.150223 0.000000 0.000000
											CHANNELS 3 Xrotation Yrotation Zrotation
											JOINT RightHandRing4
											{
												OFFSET -6.145386 0.000000 0.000000
												CHANNELS 3 Xrotation Yrotation Zrotation
												End Site
												{
													OFFSET 3.671402 4.923981 -0.202372
												}
											}
										}
									}
								}
								JOINT RightHandPinky1
								{
									OFFSET -18.920792 -0.453171 -11.426712
									CHANNELS 3 Xrotation Yrotation Zrotation
									JOINT RightHandPinky2
									{
										OFFSET -4.919586 0.000000 0.000000
										CHANNELS 3 Xrotation Yrotation Zrotation
										JOINT RightHandPinky3
										{
											OFFSET -5.233047 0.000000 0.000000
											CHANNELS 3 Xrotation Yrotation Zrotation
											JOINT RightHandPinky4
											{
												OFFSET -5.571716 0.000000 0.000000
												CHANNELS 3 Xrotation Yrotation Zrotation
												End Site
												{
													OFFSET 3.459808 4.342407 -0.466164
												}
											}
										}
									}
								}
							}
						}
					}
				}
			}
		}
	}
	JOINT LeftUpLeg
	{
		OFFSET 19.899099 -7.885101 -3.429500
		CHANNELS 3 Xrotation Yrotation Zrotation
		JOINT LeftLeg
		{
			OFFSET 1.745560 -36.997807 10.304700
			CHANNELS 3 Xrotation Yrotation Zrotation
			JOINT LeftFoot
			{
				OFFSET -1.745558 -29.803308 -13.615400
				CHANNELS 3 Xrotation Yrotation Zrotation
				JOINT LeftToeBase
				{
					OFFSET 1.181900 -18.539904 15.226099
					CHANNELS 3 Xrotation Yrotation Zrotation
					JOINT LeftToe_End
					{
						OFFSET -0.863701 1.402801 16.534700
						CHANNELS 3 Xrotation Yrotation Zrotation
						End Site
						{
							OFFSET 0.000000 16.616566 0.000000
						}
					}
				}
			}
		}
	}
	JOINT RightUpLeg
	{
		OFFSET -19.899099 -7.885101 -3.429500
		CHANNELS 3 Xrotation Yrotation Zrotation
		JOINT RightLeg
		{
			OFFSET -1.745560 -36.997807 10.304700
			CHANNELS 3 Xrotation Yrotation Zrotation
			JOINT RightFoot
			{
				OFFSET 1.745558 -29.803308 -13.615400
				CHANNELS 3 Xrotation Yrotation Zrotation
				JOINT RightToeBase
				{
					OFFSET -1.181900 -18.539904 15.226099
					CHANNELS 3 Xrotation Yrotation Zrotation
					JOINT RightToe_End
					{
						OFFSET 0.863701 1.402801 16.534700
						CHANNELS 3 Xrotation Yrotation Zrotation
						End Site
						{
							OFFSET 0.000000 16.616566 0.000000
						}
					}
				}
			}
		}
	}
}
MOTION
Frames: 4
Frame Time: 0.033333
1.531982 61.299507 -125.670372 35.423919 -30.713271 13.463356 -0.216923 0.745299 -0.082060 6.445978 2.518065 0.259878 6.425375 2.403804 0.226366 5.845596 11.769336 -20.969845 -37.519793 5.010903 5.623341 0.000000 0.000000 0.000000 23.847105 -6.104328 15.663408 -99.150830 -2.889541 -24.678578 17.862379 -59.200159 18.322988 -61.686997 -10.226210 10.911980 17.560879 -5.671833 -12.934998 10.827005 26.064068 8.641787 20.947239 51.151085 0.210573 -0.000000 -0.000003 -0.000003 10.098284 13.587184 -85.039946 0.877507 0.056773 -64.969750 1.129551 1.272035 -54.580113 0.000000 0.000001 -0.000004 8.580951 2.152792 -75.324228 -0.205119 1.010525 -58.147921 0.446807 1.738907 -53.623050 0.000001 -0.000001 0.000003 7.515059 1.209448 -63.460517 1.800529 1.472613 -64.311128 0.143458 -0.915177 -43.137409 -0.000000 -0.000001 0.000001 13.795382 0.977245 -54.297945 0.359189 1.165622 -64.792500 1.955823 2.171518 -56.964741 -0.000000 0.000003 0.000001 23.574459 25.094059 6.437217 -5.784672 4.386277 38.185545 -18.599121 23.697567 9.735560 0.207909 3.248177 -5.748417 -7.445291 -3.580549 2.720804 3.999249 -21.854746 -10.484972 -2.548017 2.051312 -2.180960 0.000001 -0.000001 0.000001 6.990848 -14.692837 29.932754 1.997571 -4.788559 36.519881 1.957290 -7.955965 34.193771 -0.000001 -0.000003 -0.000000 4.085326 -10.995058 49.262005 2.126034 -6.565952 33.502344 2.409736 -5.459508 39.705286 -0.000000 0.000000 -0.000001 4.082028 -17.761617 50.505981 3.281937 -6.589266 44.306378 4.424387 -8.842424 52.145557 -0.000001 -0.000001 -0.000007 3.733414 -26.641506 66.246538 9.235495 -8.722456 82.097856 8.409346 -10.128996 81.117526 0.000003 0.000002 0.000004 -106.189156 -2.866357 40.503838 49.400863 4.960652 -4.578665 5.557225 -5.603879 -4.331430 -0.261124 0.053273 -0.538273 -0.000000 0.000000 -0.000000 -49.942603 15.912872 -4.312058 77.231975 -1.379886 3.379719 -54.304525 -8.937529 11.535285 -2.674705 -4.731010 4.932125 0.000000 0.000003 0.000000 
0.920719 62.614677 -130.479156 34.967488 -29.020702 12.563232 0.417970 0.367663 -0.044284 6.274242 2.154081 0.519630 6.267482 2.071422 0.520380 6.939931 11.546859 -21.520102 -38.397879 4.647736 6.120502 0.000001 -0.000000 0.000000 24.178494 -6.603108 15.366213 -98.926650 -3.335846 -24.304084 16.869001 -59.040251 17.257776 -62.141594 -10.467098 10.965269 17.556726 -5.684154 -12.933779 10.837490 26.092489 8.643147 20.938990 51.136783 0.213886 0.000006 0.000001 0.000001 10.204922 13.508160 -85.495076 0.877978 0.049289 -65.472930 1.118084 1.270292 -54.120643 0.000002 -0.000000 -0.000001 8.583674 2.129667 -75.477934 -0.202719 1.016095 -58.451495 0.446440 1.738644 -53.597785 -0.000000 0.000000 -0.000000 7.545137 1.248863 -63.095587 1.793868 1.478223 -64.061956 0.145346 -0.915652 -43.095478 -0.000001 -0.000002 0.000004 13.673348 0.047265 -53.505585 0.357471 1.162426 -64.684446 1.938548 2.183748 -56.442966 -0.000002 0.000001 -0.000001 23.831047 24.710894 7.952212 -7.398073 2.277791 37.521750 -18.984361 24.717459 9.621899 0.195071 3.454404 -4.955272 -7.435856 -3.610535 2.714549 4.009321 -21.887886 -10.490874 -2.534914 2.021191 -2.189465 -0.000002 0.000001 0.000003 6.991569 -14.695586 30.072800 1.998516 -4.791190 36.659435 1.962329 -7.955769 34.336847 -0.000003 -0.000003 -0.000002 4.087381 -10.996553 49.405501 2.130396 -6.566243 33.644849 2.410796 -5.461889 39.848311 -0.000001 -0.000000 -0.000002 4.083312 -17.764407 50.646474 3.282256 -6.592659 44.445994 4.432433 -8.843589 52.286669 -0.000002 -0.000000 -0.000003 3.737153 -26.638972 66.498797 9.241155 -8.722339 82.348763 8.411819 -10.126582 81.365913 -0.000000 0.000003 0.000003 -105.612995 -0.510575 39.444100 46.144239 1.160427 -3.392714 -4.158501 -5.584605 -8.159572 -0.214308 0.052410 -0.426372 0.000002 0.000000 0.000000 -54.228389 12.808361 -0.744962 76.377279 -3.295822 2.913567 -50.994356 -9.287851 9.960879 -0.115043 -3.489621 4.217463 0.000000 -0.000001 0.000000 
0.507332 63.737000 -134.672195 34.410295 -27.708780 11.866905 1.012776 0.181955 0.089718 6.223900 1.963847 0.626791 6.223850 1.899969 0.641981 7.420463 11.176280 -21.472974 -38.737886 4.406109 6.089799 -0.000000 -0.000000 -0.000000 24.236585 -7.110898 15.411255 -98.500159 -3.510622 -24.114343 16.694726 -59.432782 16.955388 -62.731476 -10.686744 11.008334 17.561222 -5.670820 -12.935093 10.826612 26.062967 8.641719 20.947126 51.150908 0.210625 0.000006 -0.000001 0.000000 10.174845 13.530562 -85.366498 0.877834 0.051698 -65.309811 1.123260 1.266503 -54.321106 -0.000001 -0.000001 -0.000004 8.580954 2.154114 -75.315567 -0.204542 1.015850 -58.218798 0.445939 1.738273 -53.564816 -0.000001 0.000000 0.000003 7.496695 1.249293 -63.188546 1.794503 1.479695 -64.082303 0.143668 -0.917017 -43.016962 -0.000003 -0.000002 0.000009 13.721873 0.430148 -53.823680 0.361014 1.164471 -64.926453 1.943191 2.185540 -56.604216 -0.000002 0.000005 0.000002 24.110920 24.344365 9.569341 -9.108591 0.087163 36.731412 -19.384845 25.770582 9.513426 0.174146 3.693990 -4.156549 -7.439341 -3.609344 2.717391 4.006625 -21.876319 -10.489682 -2.536098 2.028011 -2.188469 0.000001 0.000002 -0.000003 6.992107 -14.697597 30.174365 1.999221 -4.793098 36.761547 1.965672 -7.955622 34.431540 0.000000 -0.000002 0.000004 4.088759 -10.997536 49.500071 2.133320 -6.566422 33.741107 2.411505 -5.463483 39.942830 0.000002 0.000002 -0.000004 4.084283 -17.766444 50.748896 3.282489 -6.595117 44.547156 4.436196 -8.844591 52.388982 -0.000001 -0.000001 -0.000005 3.743455 -26.636983 66.701052 9.245652 -8.722271 82.549543 8.414224 -10.124564 81.571706 0.000001 -0.000001 0.000004 -104.490399 -0.165833 37.998029 48.234058 -0.105702 -3.354297 -8.075334 -6.516023 -7.930197 -0.163854 0.051715 -0.317225 -0.000002 -0.000000 0.000000 -58.667036 9.769395 1.372563 75.911446 -4.451356 2.591434 -46.186221 -8.589781 8.559567 0.123166 -2.829100 3.479688 0.000000 -0.000001 0.000000 
0.209545 64.710114 -138.861206 33.889568 -26.731448 11.289991 1.616975 0.136553 0.192963 6.184159 1.877121 0.697713 6.186811 1.825615 0.716199 7.571770 10.760961 -21.178948 -38.902753 4.188683 5.933308 0.000000 0.000000 -0.000000 24.129819 -7.498312 15.650448 -98.076763 -3.597838 -24.041168 16.568053 -59.855782 16.702577 -63.386491 -10.923269 11.099639 17.561414 -5.670278 -12.935150 10.825915 26.061113 8.641649 20.948289 51.152926 0.210161 -0.000001 0.000003 -0.000002 10.048341 13.623725 -84.827691 0.877211 0.061005 -64.685525 1.139291 1.254620 -54.940884 -0.000001 -0.000001 0.000001 8.578533 2.176025 -75.169818 -0.206789 1.011708 -57.928726 0.446047 1.738357 -53.572493 0.000001 -0.000002 0.000001 7.433154 1.238571 -63.399428 1.797216 1.479162 -64.179914 0.136252 -0.918875 -42.944261 0.000002 0.000001 0.000006 13.763622 1.270249 -54.226685 0.360865 1.164774 -64.914316 1.958187 2.169194 -57.033268 0.000003 0.000003 0.000001 24.417723 24.018352 11.194826 -10.856582 -2.045268 35.847981 -19.798044 26.823934 9.421181 0.146576 3.933533 -3.357560 -7.465962 -3.554796 2.732097 3.984752 -21.792644 -10.477337 -2.564495 2.106356 -2.169407 -0.000001 -0.000001 0.000002 6.992310 -14.698319 30.211528 1.999459 -4.793805 36.798283 1.966135 -7.955601 34.444579 -0.000000 -0.000003 -0.000002 4.088940 -10.997662 49.512974 2.133710 -6.566451 33.753422 2.411604 -5.463692 39.956391 -0.000003 -0.000002 -0.000004 4.084614 -17.767182 50.785691 3.282586 -6.596008 44.583766 4.437395 -8.844962 52.425602 -0.000003 0.000003 -0.000003 3.747051 -26.635834 66.816373 9.248209 -8.722187 82.662931 8.415526 -10.123198 81.710031 0.000003 -0.000001 0.000000 -102.704571 -1.064847 36.410260 54.630708 0.555243 -3.713389 -9.541153 -7.292583 -6.610747 -0.110155 0.051206 -0.210685 -0.000002 0.000000 0.000000 -62.836497 6.290268 2.952514 75.027449 -5.793899 2.108317 -41.124545 -7.396789 7.006274 0.065557 -1.990437 2.533712 0.000000 -0.000004 -0.000000 
